<?xml version="1.0" standalone="no"?>
<!DOCTYPE svg PUBLIC "-//W3C//DTD SVG 20010904//EN"
 "http://www.w3.org/TR/2001/REC-SVG-20010904/DTD/svg10.dtd">
<svg version="1.0" xmlns="http://www.w3.org/2000/svg"
 width="1254.000000pt" height="1254.000000pt" viewBox="0 0 1254.000000 1254.000000"
 preserveAspectRatio="xMidYMid meet">

<g transform="translate(0.000000,1254.000000) scale(0.100000,-0.100000)"
fill="#000000" stroke="none">
<path d="M2714 8376 c-17 -7 -36 -27 -42 -42 -9 -22 -12 -283 -10 -1062 l3
-1034 24 -19 c20 -17 40 -19 155 -19 126 0 134 1 154 23 l22 23 0 1042 0 1041
-24 28 c-24 27 -27 28 -138 31 -79 1 -122 -2 -144 -12z"/>
<path d="M2210 8143 c-8 -3 -25 -15 -37 -26 l-23 -20 0 -927 0 -927 23 -21
c21 -20 34 -22 154 -22 114 0 134 2 154 19 l24 19 3 914 c1 502 0 923 -3 936
-11 45 -59 62 -175 61 -58 0 -112 -3 -120 -6z"/>
<path d="M3293 8083 c-49 -9 -53 -31 -53 -268 0 -121 5 -251 10 -289 18 -122
76 -223 221 -386 70 -79 83 -108 69 -159 -11 -42 -39 -71 -92 -95 -51 -24 -60
-54 -56 -186 4 -148 8 -152 152 -148 l101 3 6 75 c18 200 119 376 280 486 38
26 69 52 69 58 0 6 -16 26 -34 46 -28 28 -42 59 -72 155 -20 66 -37 127 -38
135 -1 20 82 22 690 13 l490 -8 117 -105 c65 -57 123 -108 130 -111 7 -4 93
17 192 47 609 184 1106 264 1649 264 348 0 639 -27 914 -85 63 -14 117 -23
119 -21 6 6 -132 63 -227 94 -219 69 -452 87 -1060 79 -239 -3 -484 -11 -545
-17 -288 -29 -616 -86 -895 -156 -74 -19 -145 -34 -157 -34 -16 0 -39 20 -75
66 -29 36 -65 80 -80 98 l-26 31 -649 5 -648 5 -71 188 c-39 103 -78 196 -88
205 -14 14 -40 17 -169 18 -84 1 -162 -1 -174 -3z"/>
<path d="M1659 7871 l-24 -19 -3 -801 -2 -802 24 -24 c24 -24 30 -25 159 -25
127 0 135 1 155 23 l22 23 0 798 0 797 -25 24 c-23 24 -29 25 -153 25 -113 0
-133 -2 -153 -19z"/>
<path d="M6785 7834 c-79 -18 -163 -55 -190 -84 -18 -20 -18 -20 269 -20 l287
0 -3 58 -3 57 -145 2 c-98 1 -168 -3 -215 -13z"/>
<path d="M6850 7461 c-115 -5 -163 -11 -185 -23 -39 -21 -275 -262 -275 -280
0 -48 20 -52 485 -93 203 -18 783 -40 819 -31 14 3 30 16 37 27 13 26 -8 63
-146 248 -61 83 -105 132 -122 139 -35 14 -409 22 -613 13z"/>
<path d="M7704 7435 c-8 -19 -3 -25 153 -220 100 -125 136 -163 163 -172 50
-17 204 -16 238 1 59 30 213 79 322 102 444 93 775 34 1215 -217 209 -118 228
-127 360 -159 165 -41 337 -97 459 -151 98 -43 122 -64 64 -55 -18 3 -150 10
-293 17 -300 14 -303 13 -350 -68 -16 -26 -52 -85 -82 -130 -63 -96 -58 -94
-266 -119 -150 -18 -174 -24 -164 -41 4 -6 224 -11 555 -12 575 -2 594 -1 608
41 9 29 -14 74 -43 87 -20 9 -384 50 -447 51 -6 0 -6 3 0 9 5 5 97 11 204 14
220 5 269 15 343 72 96 73 87 95 -66 169 -137 67 -246 104 -468 160 -165 42
-172 45 -234 95 -240 195 -470 287 -805 321 -126 13 -250 8 -407 -17 l-102
-16 -70 52 c-39 29 -126 86 -193 127 l-122 74 -283 0 c-244 0 -284 -2 -289
-15z"/>
<path d="M4254 7110 c-272 -41 -484 -268 -484 -517 l0 -53 34 0 c32 0 35 3 41
39 12 73 71 179 134 242 197 196 512 194 698 -5 68 -72 116 -160 133 -243 13
-59 9 -222 -5 -258 -18 -46 22 11 43 61 139 333 -107 708 -483 737 -33 3 -83
2 -111 -3z"/>
<path d="M8865 7094 c-217 -47 -388 -210 -435 -412 -27 -115 -10 -253 42 -355
24 -47 30 -45 18 8 -14 61 -12 174 5 240 70 272 339 437 600 370 179 -47 328
-204 366 -384 11 -53 8 -186 -7 -256 l-6 -30 20 30 c68 101 87 297 43 425 -92
262 -377 423 -646 364z"/>
<path d="M7442 6845 c2 -3 101 -20 218 -39 212 -34 238 -43 220 -75 -21 -39
-174 -203 -215 -231 -100 -69 -18 -64 -1190 -71 -1118 -6 -1163 -8 -1350 -55
-92 -23 -214 -65 -221 -75 -3 -6 495 -8 1328 -7 l1333 3 64 23 c129 47 184 99
375 352 88 117 101 151 67 170 -20 10 -640 15 -629 5z"/>
<path d="M1630 5936 c0 -58 4 -79 19 -97 l19 -24 2104 -5 2103 -5 62 -29 c64
-29 137 -98 178 -167 25 -41 39 -45 175 -41 l110 3 33 52 c44 68 106 123 176
156 l56 26 2103 5 2104 5 19 24 c15 18 19 39 19 97 l0 74 -2112 0 c-1423 0
-2134 -4 -2177 -11 -115 -18 -207 -64 -283 -140 l-68 -67 -34 42 c-47 58 -128
111 -217 144 l-74 27 -2157 3 -2158 2 0 -74z"/>
<path d="M6742 5669 c-62 -11 -118 -37 -151 -73 l-24 -26 2081 0 c2045 0 2083
0 2133 20 49 18 109 64 109 82 0 11 -4081 8 -4148 -3z"/>
<path d="M5120 5075 l0 -55 70 0 70 0 0 55 0 55 -70 0 -70 0 0 -55z"/>
<path d="M6110 5021 l0 -109 -207 -4 c-203 -3 -209 -4 -259 -30 -109 -57 -154
-156 -154 -338 0 -182 48 -287 157 -341 46 -23 57 -24 326 -27 l277 -3 0 480
0 481 -70 0 -70 0 0 -109z m-27 -259 l27 -12 0 -195 0 -196 -26 -24 c-31 -29
-115 -40 -245 -33 -106 6 -143 25 -179 89 -22 39 -25 55 -25 149 0 89 4 111
23 147 24 47 55 71 105 84 47 11 287 5 320 -9z"/>
<path d="M6860 5119 c-30 -5 -83 -23 -116 -39 -151 -74 -227 -219 -227 -430 1
-280 118 -442 346 -481 108 -18 357 -7 439 20 76 24 161 94 203 166 38 65 65
184 65 291 0 162 -35 267 -117 355 -90 96 -195 129 -408 128 -71 -1 -155 -5
-185 -10z m402 -148 c61 -29 114 -92 133 -156 47 -156 18 -363 -63 -448 -41
-43 -93 -66 -179 -78 -86 -12 -233 -4 -299 16 -129 39 -193 173 -181 378 6
109 26 170 72 225 66 76 122 92 320 89 134 -2 155 -5 197 -26z"/>
<path d="M2070 5099 c-121 -20 -229 -95 -277 -191 -43 -86 -56 -162 -51 -303
4 -102 10 -143 28 -188 41 -108 125 -191 223 -223 41 -14 103 -18 300 -22
l247 -4 0 76 0 76 -217 0 c-120 0 -234 5 -254 10 -63 18 -102 51 -134 115 -27
54 -30 72 -34 171 -4 135 12 201 63 261 61 70 89 77 349 81 l227 4 0 74 0 74
-207 -1 c-115 -1 -233 -5 -263 -10z"/>
<path d="M7890 5000 l0 -89 -61 -3 -62 -3 0 -60 0 -60 59 -5 59 -5 5 -230 c5
-246 9 -263 62 -311 49 -45 89 -57 201 -62 l107 -5 0 65 0 65 -72 6 c-151 11
-159 27 -156 284 l3 188 113 3 112 3 0 64 0 65 -115 0 -115 0 0 90 0 90 -70 0
-70 0 0 -90z"/>
<path d="M2965 4901 c-161 -44 -238 -185 -222 -406 11 -162 84 -276 198 -309
73 -22 325 -22 398 0 146 43 221 215 192 441 -12 96 -44 166 -96 211 -66 58
-94 65 -275 68 -91 2 -178 -1 -195 -5z m300 -132 c82 -22 116 -77 123 -199 8
-150 -32 -234 -123 -259 -50 -14 -208 -14 -257 -1 -44 13 -93 66 -107 117 -6
21 -11 76 -11 123 1 126 39 195 120 218 48 14 206 14 255 1z"/>
<path d="M3908 4900 c-50 -15 -96 -50 -114 -88 -17 -33 -19 -68 -22 -339 l-3
-303 71 0 70 0 0 269 c0 255 1 270 20 294 28 36 76 47 203 47 l107 0 0 65 0
65 -152 -1 c-84 0 -165 -4 -180 -9z"/>
<path d="M4570 4898 c-52 -15 -86 -43 -110 -94 -21 -43 -23 -63 -27 -297 -2
-139 -2 -271 2 -294 l6 -43 70 0 69 0 0 275 0 276 25 23 c31 29 71 36 203 36
l102 0 0 65 0 65 -152 -1 c-84 0 -169 -5 -188 -11z"/>
<path d="M5120 4540 l0 -370 70 0 70 0 0 370 0 370 -70 0 -70 0 0 -370z"/>
<path d="M8613 4896 c-63 -20 -99 -51 -127 -108 -25 -50 -26 -58 -26 -236 0
-206 7 -243 56 -301 60 -70 85 -75 377 -79 l257 -3 0 65 0 65 -232 3 c-253 4
-277 8 -304 59 -8 16 -14 46 -14 68 l0 39 223 4 c238 5 268 10 314 60 68 72
70 211 6 297 -49 64 -94 75 -303 78 -134 2 -197 -1 -227 -11z m359 -126 c47
-13 68 -43 68 -96 0 -34 -5 -47 -26 -63 -25 -20 -40 -21 -220 -21 l-194 0 0
59 c0 68 23 105 73 120 44 13 254 13 299 1z"/>
<path d="M9595 4901 c-149 -36 -225 -158 -225 -361 0 -176 50 -284 157 -336
57 -29 61 -29 266 -32 l207 -4 0 66 0 66 -156 0 c-181 0 -230 10 -272 53 -40
44 -52 85 -52 187 0 95 12 143 44 178 45 51 69 56 259 60 l177 4 0 64 0 64
-187 -1 c-104 -1 -201 -4 -218 -8z"/>
<path d="M10220 4846 l0 -66 183 0 c100 0 198 -5 218 -10 50 -14 80 -50 86
-103 l5 -44 -190 -5 c-182 -5 -194 -6 -246 -32 -74 -36 -98 -76 -104 -172 -8
-122 33 -196 127 -229 35 -12 94 -15 298 -15 l254 0 -3 288 c-3 272 -4 289
-25 327 -27 50 -57 79 -108 102 -34 15 -76 18 -267 21 l-228 4 0 -66z m490
-446 l0 -100 -165 0 c-99 0 -174 4 -188 11 -42 19 -58 78 -37 134 17 44 58 54
233 55 l157 0 0 -100z"/>
</g>
</svg>
